<?xml version="1.0" encoding="UTF-8"?>
<svg id="Layer_2" data-name="Layer 2" xmlns="http://www.w3.org/2000/svg" viewBox="0 0 302.44 303.19">
  <defs>
    <style>
      .cls-1 {
        fill: #fff;
      }
    </style>
  </defs>
  <g id="_10" data-name="10">
    <path class="cls-1" d="M117.79,282.94c-13.06,13.06-30.44,20.25-48.96,20.25s-35.16-6.89-48.11-19.41C7.52,271.02.16,253.68,0,234.97c-.16-18.96,7.39-37.48,20.72-50.81l68.79-68.79c13.06-13.05,30.43-20.24,48.93-20.24,4.1,0,8.23.36,12.26,1.09,4.33.75,8.64,1.95,12.79,3.56,3.77,1.45,7.46,3.25,10.96,5.38,4.7,2.85,9.07,6.29,13,10.21,3.59,3.59,6.78,7.57,9.47,11.81.9,1.42.69,3.32-.51,4.52l-18.79,18.79c-.69.68-1.6,1.06-2.57,1.06-1.43,0-2.72-.84-3.3-2.13-1.81-4.05-4.33-7.7-7.49-10.87-3.75-3.75-8.14-6.56-13.04-8.37-4.07-1.52-8.33-2.3-12.7-2.3-9.83,0-18.97,3.8-25.84,10.66l-69.65,69.64c-13.97,13.97-14.16,36.9-.43,51.11,6.75,6.98,15.95,10.83,25.93,10.83s19.7-4.01,26.68-10.99l38.01-38.02,1.16.41c9.49,3.37,19.43,5.08,29.52,5.08,1.85,0,3.69-.05,5.54-.17l3-.19,2.03-.02-56.7,56.7Z"/>
    <path class="cls-1" d="M281.72,119.01l-68.81,68.81c-13.05,13.05-30.44,20.24-48.95,20.24-4.09,0-8.21-.36-12.24-1.08-4.4-.79-8.71-1.98-12.79-3.56-3.8-1.47-7.49-3.29-10.95-5.4-4.7-2.85-9.07-6.29-12.98-10.2-3.59-3.59-6.79-7.57-9.49-11.82-.91-1.42-.69-3.32.51-4.52l18.8-18.8c.69-.68,1.6-1.06,2.57-1.06,1.43,0,2.73.84,3.3,2.14,1.79,4.04,4.31,7.7,7.49,10.88,3.73,3.73,8.12,6.55,13.02,8.37,4.07,1.52,8.35,2.28,12.71,2.28,9.82-.01,18.96-3.8,25.82-10.65l69.64-69.65c13.99-13.99,14.19-36.93.43-51.13-6.74-6.97-15.95-10.81-25.91-10.81s-19.71,4.01-26.7,11l-38.02,38.01-1.16-.41c-9.48-3.37-19.41-5.09-29.51-5.09-1.84,0-3.69.05-5.53.17l-3,.19-2.03.02,56.69-56.69C197.69,7.19,215.08,0,233.6,0s35.14,6.88,48.09,19.38c13.21,12.77,20.58,30.09,20.75,48.81.16,18.97-7.38,37.49-20.71,50.82Z"/>
  </g>
</svg>