<?xml version="1.0" encoding="UTF-8"?>
<svg id="Layer_1" xmlns="http://www.w3.org/2000/svg" version="1.1" viewBox="0 0 32 32">
  <!-- Generator: Adobe Illustrator 29.6.0, SVG Export Plug-In . SVG Version: 2.1.1 Build 207)  -->
  <defs>
    <style>
      .st0 {
        fill: #f97316;
      }

      .st1 {
        display: none;
      }

      .st2 {
        fill: #fb923c;
      }

      .st3 {
        fill: #f4f4f5;
      }
    </style>
  </defs>
  <path class="st1" d="M8.76,32.1c-.12,0-.26,0-.37-.02-.3-.04-.57-.1-.89-.2-.55-.18-1.03-.43-1.36-.63-.75-.43-1.52-.97-2.33-1.64-.36-.3-.71-.61-1.05-.93l-.28-.28c-.2-.18-.37-.37-.51-.59-.26-.39-.47-.91-.49-1.58-.02-.22-.04-.43-.04-.67,0-.47.02-.99.1-1.48.14-1.03.47-1.93.73-2.62.02-.06.04-.12.06-.18-.08-.18-.14-.37-.22-.57-.36-1.03-.59-2.17-.71-3.32-.12-1.2-.08-2.43.1-3.63.04-.26.08-.51.14-.75-.47-.69-1.07-1.68-1.44-2.82v-.02c-.08-.24-.28-.83-.16-1.58.04-.28.1-.55.2-.85.18-.55.43-1.01.63-1.34.43-.75.97-1.5,1.62-2.31.3-.36.59-.71.91-1.03l.28-.28c.14-.16.3-.3.47-.41.39-.3.95-.55,1.7-.57.24-.02.49-.04.75-.04h.02c.49,0,1.03.04,1.54.12.79.12,1.5.34,2.13.57.41-.18.85-.34,1.3-.49,1.07-.36,2.21-.59,3.36-.67,1.2-.1,2.43-.04,3.59.16.28.04.55.1.83.16.93-.63,1.78-1.09,2.66-1.36h.02c.2-.08.63-.22,1.2-.22.12,0,.26,0,.37.02.3.04.57.1.89.2.55.18,1.03.43,1.36.63.75.43,1.52.97,2.33,1.64.36.3.71.61,1.05.93l.28.28c.14.12.28.26.37.41.36.45.63,1.11.65,2.01.02.32.02.65,0,.99-.04.73-.14,1.42-.32,2.05-.14.47-.3.95-.47,1.42.36.89.61,1.8.79,2.72.36,1.95.32,3.97-.12,5.9.26.37.49.73.69,1.09.34.59.61,1.2.81,1.84.08.24.26.83.14,1.62-.04.28-.12.53-.22.83-.36,1.01-.91,1.84-1.4,2.53-.53.75-1.14,1.48-1.78,2.15l-.24.24c-.14.16-.3.3-.47.43-.39.3-.95.53-1.7.57-.24.02-.49.04-.75.04h-.02c-.53,0-1.07-.04-1.62-.14-.89-.14-1.68-.41-2.39-.69-.37.16-.77.3-1.14.41-1.11.34-2.27.55-3.43.61-1.2.08-2.43-.02-3.61-.24-.14-.02-.3-.06-.43-.08-1.03.73-1.93,1.2-2.88,1.52h-.02c-.2-.02-.63.14-1.2.14h0ZM4.86,26.49l2.09.73c.18-.51.2-1.07.08-1.58,0,.04,0,.1.02.14,0,.06.02.14.02.22-.02-.39-.16-.91-.51-1.38-.14-.18-.3-.34-.47-.47l.1.08.18.18c-.16-.16-.34-.32-.53-.45l-.97,2.55h0ZM24.41,25.57c-.16.16-.32.32-.45.53l2.35.91v-2.19h0c-.22,0-.43.02-.63.08h.12c.06,0,.14-.02.22-.02-.36.02-.83.14-1.26.41-.24.16-.43.34-.61.57l.08-.1.2-.2h0ZM7.07,25.05c.1.08.2.16.3.26.51.43.99.77,1.42,1.03.28-.14.59-.34.93-.59.1-.06.18-.14.28-.22.06-.04.1-.1.16-.14.02-.02.06-.06.08-.08l1.22-1.24,1.66.57c.06.02.12.04.16.06.36.12.71.2,1.07.28.73.14,1.5.2,2.25.14.71-.04,1.44-.18,2.11-.37.34-.1.67-.22.99-.37.16-.06.32-.14.45-.22.39-.2.85-.32,1.3-.32.71,0,1.24.26,1.5.39.08.04.16.08.26.1.49.2,1.07.43,1.58.51.08.02.18.02.26.04.3-.34.57-.69.83-1.05.16-.22.32-.43.45-.65-.02-.04-.04-.08-.08-.14-.14-.24-.3-.47-.49-.77-.06-.1-.14-.18-.22-.28-.04-.04-.06-.08-.1-.12-.81-.79-1.09-1.91-.71-2.98.02-.06.04-.12.06-.16.45-1.42.53-2.94.28-4.4-.14-.69-.34-1.38-.63-2.03-.02-.06-.06-.12-.08-.18-.65-1.2-.37-2.23-.14-2.72.1-.2.18-.41.26-.61.16-.37.28-.77.39-1.12.04-.18.08-.36.1-.57-.1-.08-.2-.16-.3-.26-.53-.43-.99-.77-1.42-1.03-.28.16-.59.36-.95.59-.1.08-.2.16-.3.24-.02.02-.06.04-.08.08-.53.51-1.24.79-1.97.79-.36,0-.69-.06-1.03-.2-.08-.02-.16-.06-.24-.08-.36-.1-.71-.2-1.09-.26-.73-.12-1.5-.16-2.25-.1-.71.06-1.42.2-2.09.41-.34.1-.65.24-.97.37-.16.06-.3.14-.45.22l-.08.04c-.41.24-.91.36-1.38.36-.43,0-.87-.1-1.28-.3-.1-.04-.18-.08-.28-.12-.47-.2-1.05-.41-1.54-.47-.08-.02-.16-.02-.22-.04-.08.1-.16.2-.24.28-.43.53-.77.99-1.03,1.44.14.28.34.57.57.93.06.1.14.2.22.28.04.06.1.1.14.16l1.14,1.2-.49,1.58c-.04.1-.06.2-.1.3-.1.36-.18.73-.24,1.11-.12.75-.14,1.5-.06,2.27.06.71.22,1.42.45,2.09.12.34.26.65.39.97l.06.12c.41.85.41,1.8-.02,2.64-.04.08-.08.16-.1.24-.08.2-.18.39-.26.59-.16.43-.36.95-.41,1.4,0,.02-.02.08-.02.12h0ZM25.64,7.68c.16.16.34.32.55.47l.97-2.55-2.09-.73c-.18.51-.2,1.07-.08,1.58v-.34c0,.3.1.79.41,1.26.16.22.34.41.55.59l-.1-.08-.22-.22h0ZM5.78,5.22v2.19c.22,0,.43-.02.63-.08h-.12c-.06,0-.14.02-.22.02.36-.02.83-.14,1.26-.41.24-.16.43-.34.61-.57l-.08.1-.18.2c.16-.16.32-.34.45-.53l-2.37-.91h0Z"/>
  <path class="st0" d="M11.11,17.47l.14,5.59-1.38-1.12c-1.54,2.51-2.03,4.93-1.3,6.73l.26.63-.63-.28c-1.44-.63-2.74-1.52-3.83-2.66l-.06-.06-.02-.1c-.08-.69-.04-1.44.14-2.21v-.02c.26-.97.63-1.93,1.11-2.9.3-.61.65-1.22,1.05-1.82l-1.2-.99,5.74-.79Z"/>
  <path class="st0" d="M20.9,14.65l-.14-5.59,1.38,1.12c1.54-2.51,2.03-4.93,1.3-6.73l-.26-.63.63.28c1.44.63,2.74,1.52,3.83,2.66l.06.06.02.1c.08.69.04,1.44-.14,2.21v.02c-.26.97-.63,1.93-1.11,2.9-.3.61-.65,1.22-1.05,1.82l1.2.99-5.74.79Z"/>
  <path class="st0" d="M17.47,20.83l5.59-.14-1.12,1.38c2.51,1.54,4.93,2.03,6.73,1.3l.63-.26-.28.63c-.63,1.44-1.52,2.74-2.66,3.83l-.06.06-.1.02c-.69.08-1.44.04-2.21-.14h-.02c-.97-.26-1.93-.63-2.9-1.11-.61-.3-1.22-.65-1.82-1.05l-.99,1.2-.79-5.74Z"/>
  <path class="st0" d="M14.62,11.4l-5.59.14,1.12-1.38c-2.51-1.54-4.93-2.03-6.73-1.3l-.61.26.28-.63c.63-1.44,1.52-2.74,2.66-3.83l.06-.06.1-.02c.69-.08,1.44-.04,2.21.14h.02c.97.26,1.93.63,2.9,1.11.61.3,1.22.65,1.82,1.05l.99-1.2.77,5.74Z"/>
  <circle class="st2" cx="16.07" cy="15.97" r="11.94"/>
  <path class="st3" d="M11.7,11.77c-.69-.32-1.2-.63-1.72-1.01-.79-.55-1.52-1.16-2.13-1.82-1.5-1.52-2.29-3.08-2.07-4.36l-.45.49c-1.09,1.14-2.53,3.16-2.55,4.03l.02.1c.2.67.51,1.34.97,1.99v.02c.59.95,1.76,2.51,5.9,4.32l-.73,1.38,5.59-1.5-1.99-5.23-.83,1.58Z"/>
  <path class="st3" d="M20.39,20.45c.69.32,1.2.63,1.72,1.01.79.55,1.52,1.16,2.13,1.82,1.5,1.52,2.29,3.08,2.07,4.36l.45-.47c1.09-1.14,2.53-3.16,2.55-4.03l-.02-.1c-.2-.67-.51-1.34-.97-1.99v-.02c-.59-.95-1.76-2.51-5.9-4.32l.73-1.38-5.59,1.5,2.01,5.17.81-1.54Z"/>
  <path class="st3" d="M20.53,11.73c.32-.69.63-1.2,1.01-1.72.55-.79,1.16-1.52,1.82-2.13,1.52-1.5,3.08-2.29,4.36-2.07l-.47-.45c-1.14-1.09-3.16-2.53-4.03-2.55l-.1.02c-.67.2-1.34.51-1.99.97h-.02c-.95.59-2.51,1.76-4.32,5.9l-1.38-.73,1.5,5.59,5.21-1.97-1.58-.85Z"/>
  <path class="st3" d="M11.49,20.4c-.32.69-.63,1.2-1.01,1.72-.55.79-1.16,1.52-1.82,2.13-1.52,1.5-3.08,2.29-4.36,2.07l.47.45c1.14,1.09,3.16,2.53,4.03,2.55l.1-.02c.67-.2,1.34-.51,1.99-.97h.02c.95-.59,2.51-1.76,4.32-5.9l1.38.73-1.5-5.59-5.19,1.97,1.56.85Z"/>
</svg>