<?xml version="1.0" encoding="UTF-8"?>
<svg id="Layer_2" data-name="Layer 2" xmlns="http://www.w3.org/2000/svg" viewBox="0 0 1100 770">
  <defs>
    <style>
      .cls-1 {
        fill: #fff;
      }

      .cls-2 {
        fill: #f03;
      }
    </style>
  </defs>
  <g id="Layer_2-2" data-name="Layer 2">
    <g>
      <rect class="cls-1" x="259.04" y="161.41" width="619.83" height="483.65"/>
      <path id="YouTube" class="cls-2" d="M1077.01,120.24c-12.65-47.33-49.92-84.6-97.25-97.25C893.98,0,550,0,550,0c0,0-343.98,0-429.76,22.99-47.33,12.65-84.6,49.92-97.25,97.25C0,206.02,0,385,0,385c0,0,0,178.98,22.99,264.76,12.65,47.33,49.92,84.6,97.25,97.25,85.78,22.99,429.76,22.99,429.76,22.99,0,0,343.98,0,429.76-22.99,47.33-12.65,84.6-49.92,97.25-97.25,22.99-85.78,22.99-264.76,22.99-264.76,0,0,0-178.98-22.99-264.76ZM440,550V220l285.78,165.01-285.78,165Z"/>
    </g>
  </g>
</svg>